<?xml version="1.0" encoding="UTF-8"?>
<svg version="1.1" viewBox="0 0 2048 2048" width="512" height="512" xmlns="http://www.w3.org/2000/svg">
<path transform="translate(1017,112)" d="m0 0h13l14 5 27 13 33 15 19 9 151 70 34 16 33 15 34 16 28 13 35 16 36 17 65 30 110 51 34 16 33 15 34 16 136 63 34 16 20 9 34 16 56 26 10 7 6 9 2 5v138l-6 12-7 6-24 12-33 15-34 16-33 15-36 17-26 12-33 15-15 7-23 11-33 15-38 18-26 12-27 12 4 16 19 72 27 101 16 59 11 42 24 89 1 7v9l-3 9-4 8-6 7-15 11-18 12-43 29-16 10-28 17-28 16-28 15-42 21-5 2-1 38v88l6 2 10 8 9 11 8 16 3 14v72l-4 3h-2l7 37 18 100 6 34-1 7-5 4-17 8-22 7-19 4-19 2h-21l-24-3-23-6-22-9-10-6-1-1v-12l11-60 11-62 7-38v-6l-4-2-1-2v-68l3-16 4-9 7-12 12-12 8-5h2v-98l-30 11-31 11-32 10-35 10-37 9-47 10-36 6-42 6-49 5-50 3-26 1h-37l-29-1-58-4-38-4-48-7-43-8-36-8-43-11-40-12-36-12-36-13-34-14-27-12-34-16-22-11-22-12-20-11-21-13-16-10-20-13-39-26-22-15-14-10-7-8-5-10-1-4v-15l9-35 27-101 18-67 23-86 16-60 8-29 1-3-15-7-34-16-26-12-30-14-78-36-34-16-33-15-34-16-95-44-9-7-5-8-2-4v-141l7-11 7-6 29-14 24-11 34-16 33-15 32-15 28-13 39-18 30-14 28-13 67-31 32-15 16-7 15-7 36-17 30-14 39-18 33-15 27-13 33-15 34-16 26-12 34-16 20-9 30-14 28-13 179-83 32-15z" fill="#31599C"/>
<path transform="translate(0,615)" d="m0 0 5 5 8 7 17 9 21 9 13 5 33 16 20 9 28 13 16 7 16 8 18 8 14 7 48 22 15 7 25 12 55 25 15 7 21 10 28 13 55 25 16 8 11 5 67 31 28 13 32 15 52 24 34 16 33 15 60 28 32 15 24 11 39 18 34 16 20 9 36 17 25 11 6 2h7l15-5 36-17 29-13 15-7 25-12 26-12 32-15 42-19 15-7 27-13 48-22 34-16 28-13 21-10 25-11 5-3h7l1 10v591l-1 9-12 5-30 11-36 12-37 11-38 10-50 11-38 7-50 7-49 5-50 3-26 1h-37l-29-1-58-4-38-4-48-7-43-8-36-8-43-11-40-12-36-12-36-13-34-14-27-12-34-16-22-11-22-12-20-11-21-13-16-10-20-13-39-26-22-15-14-10-7-8-5-10-1-4v-15l9-35 27-101 18-67 23-86 16-60 8-29 1-3-15-7-34-16-26-12-30-14-78-36-34-16-33-15-34-16-95-44-9-7-5-8-2-4z" fill="#31599C"/>
<path transform="translate(0,615)" d="m0 0 5 5 8 7 17 9 21 9 13 5 33 16 20 9 28 13 16 7 16 8 18 8 14 7 48 22 15 7 25 12 55 25 15 7 21 10 28 13 55 25 16 8 11 5 67 31 28 13 32 15 52 24 34 16 33 15 60 28 32 15 24 11 39 18 34 16 20 9 36 17 25 11 6 2h7l15-5 36-17 29-13 15-7 25-12 26-12 32-15 42-19 15-7 27-13 48-22 34-16 28-13 21-10 25-11 5-3h7l1 10-1 101-1 13-9 4-19 9-33 15-36 16-14 7-33 15-36 17-16 7-16 8-27 12-15 7-25 12-29 13-16 8-24 11-28 13-16 7-15 7-16 7-11 2-14-5-36-17-24-11-39-18-34-16-33-15-60-28-37-17-38-18-24-11-70-32-34-16-55-25-16-8-27-12-15-7-22-10-15-7-27-12-6-2-2-3-18-8-41-19-125-58-32-15-33-15-34-16-95-44-9-7-5-8-2-4z" fill="#20396B"/>
<path transform="translate(2047,615)" d="m0 0h1v119l-6 12-7 6-24 12-33 15-34 16-33 15-36 17-26 12-33 15-15 7-23 11-33 15-38 18-26 12-27 12 4 16 19 72 27 101 16 59 11 42 24 89 1 7v9l-3 9-4 8-6 7-15 11-18 12-43 29-16 10-28 17-28 16-28 15-42 21-7 2-1-27v-556l-1-13-3-9-1-6h2v-2l7-3 16-7 47-22 27-12 19-9 29-13 14-7 36-16 16-8 29-13 16-8 37-17 14-6 16-8 29-13 16-8 33-15 18-8 16-8 32-15 33-15 16-8 9-6z" fill="#25457D"/>
<path transform="translate(1017,572)" d="m0 0h11l11 4 15 8 23 14 35 21 28 17 215 129 28 17 60 36 22 13 21 13 9 7 7 6 7 10 5 9 3 9 1 13v564l1 19v126l6 2 10 8 9 11 8 16 3 14v72l-4 3h-2l7 37 18 100 6 34-1 7-5 4-17 8-22 7-19 4-19 2h-21l-24-3-23-6-22-9-10-6-1-1v-12l11-60 11-62 7-38v-6l-4-2-1-2v-68l3-16 4-9 7-12 12-12 8-5h2l1-108v-601l-5-2-32-19-40-24-28-17-32-19-28-17-32-19-21-13-32-19-28-17-32-19-28-17-32-19-28-17-32-19-18-11-10-9-5-10-1-4v-9l4-11 8-9z" fill="#FCFCFC"/>
<path transform="translate(1453,1347)" d="m0 0h2v162l-20 8-28 10-37 12-42 12-37 9-47 10-36 6-42 6-49 5-50 3-26 1h-37l-29-1-58-4-38-4-48-7-43-8-36-8-43-11-40-12-36-12-36-13-34-14-27-12-34-16-22-11-22-12-16-9 1-4h6l19 8 15 5 7 3 26 8 9 2 16 4 6 2 8 2 26 6 14 4 36 8 46 8 23 3 8 1 22 3 40 4 56 2h55l39-1 42-3 43-4 57-8 37-7 32-7 32-8 23-7 33-10 50-17 26-10 32-13 20-9 18-8 16-8 15-8 16-8 10-6 14-7z" fill="#25457D"/>
<path transform="translate(2047,615)" d="m0 0h1v119l-6 12-7 6-24 12-33 15-34 16-33 15-36 17-26 12-33 15-15 7-23 11-33 15-38 18-26 12-27 12h-2v3l-10 3-9 4-73 33-16 8-17 8-4 2h-3l-1-91-1-8-4-10-2-11h2v-2l7-3 16-7 47-22 27-12 19-9 29-13 14-7 36-16 16-8 29-13 16-8 37-17 14-6 16-8 29-13 16-8 33-15 18-8 16-8 32-15 33-15 16-8 9-6z" fill="#20396B"/>
<path transform="translate(1483,1598)" d="m0 0 15 1 10 2 10 4 11 7 6 5 9 11 8 16 3 14v72l-4 3h-2l7 37 18 100 6 34-1 7-5 4-17 8-22 7-19 4-19 2h-21l-24-3-23-6-22-9-10-6-1-1v-12l11-60 11-62 7-38v-6l-4-2-1-2v-68l3-16 4-9 7-12 12-12 11-7 9-4 8-2z" fill="#DD8185"/>
<path transform="translate(1483,1598)" d="m0 0 15 1 10 2 10 4 11 7 6 5 9 11 8 16 3 14v72l-6 4-124-1-4-2-1-2v-68l3-16 4-9 7-12 12-12 11-7 9-4 8-2z" fill="#FCDE88"/>
<path transform="translate(1517,890)" d="m0 0 2 1 1 8v92h6l5 15 6 23 3 10 9 34 11 42 12 45 7 27 7 24 5 26-1 10-5 10-8 9-13 9h-2v2l-20 14-5 1v2l-15 9-1 12v62l1 103-4 1-1-27z" fill="#385A9B"/>
<path transform="translate(1455,1389)" d="m0 0h2l1 3v107l-1 9-2 1z" fill="#6A6695"/>
</svg>
