<?xml version="1.0" encoding="UTF-8"?>
<svg version="1.1" viewBox="0 0 2048 2048" width="30" height="26" xmlns="http://www.w3.org/2000/svg">
<path transform="translate(245)" d="m0 0h1563l4 2 32 7 27 9 20 9 21 11 15 10 16 12 13 11 12 11 14 15 13 17 14 21 12 22 11 26 8 26 6 27 2 2v1570h-2l-5 26-7 25-10 25-12 24-13 20-12 16-12 14-5 6h-2v2h-2v2l-8 7-10 9-17 13-22 14-25 13-26 10-25 7-32 7h-1552l-35-7-24-7-24-9-24-12-19-12-14-10-13-11-13-12-12-12-9-11-11-14-10-15-12-21-8-17-9-25-5-18-7-32v-1559l4-18 6-25 7-21 10-23 11-21 8-12 12-17 12-14 9-10 12-12 11-9 17-13 17-11 23-12 15-7 20-7 26-7zm904 387 1 10v44l-4 27-4 17-7 21-8 18-9 17-8 11-11 12-11 11-11 9-10 8-16 12-20 14-18 13-17 12-19 14-15 12-11 9-10 9-8 7-20 20-7 8-13 16-10 14-8 13-7 12-8 18-5 15-3 15-1 11v14l3 22 5 19 7 19 12 25 9 15 10 15 14 19 12 14 9 11 6 7h2l2 4 22 22 8 7 10 9 7 6h2v2l3 1-1-5-14-29-12-30-10-27-11-33-9-35-6-33-2-19v-28l4-15 7-13 10-14 11-12 7-8 12-11 10-9 11-9 13-11 11-9 32-26 14-12 11-9v-2l4-2 15-14 23-23 9-11 11-13 10-15 9-15 10-24 6-23 2-14v-38l-4-23-6-21-6-16-9-19-6-10zm109 269m-3 1-35 15-40 19-22 12-19 11-19 12-20 14-18 14-13 12-9 8v2l-3 1-7 8-10 13-8 13-8 20-2 11v26l3 24 4 17 5 15 7 16 8 15 8 12 9 12 11 14 12 16 7 12 3 9 1 16-2 18-5 20-8 23-3 6v2l4-2 10-8 10-9 14-14 11-14 10-14 10-19 6-18 2-11v-24l-3-15-6-17-8-17-13-21-17-26-8-16-4-11-2-11v-11l4-18 7-17 6-10 8-11 9-11 14-15 20-20 8-7 14-13 11-9 10-9 11-9 17-14 13-10 8-6zm-261 410m397 3-21 3-22 6-16 6-12 5v2l19 2 25 5 16 5 16 7 10 6 11 9 8 10 6 12 3 10v15l-4 14-8 17-8 12-9 12-12 14-23 23-2 1v2l-4 2-10 9-11 9-26 20-16 11 3 1 31-9 21-7 27-11 25-12 18-10 16-11 10-8 12-11 8-8 10-14 8-16 4-14 1-5v-23l-4-20-5-15-8-17-9-12-9-9-14-9-15-6-17-3zm-560 18-36 2-32 3-27 4-24 5-20 6-16 7-10 7-5 5-5 10-1 8 2 8 5 9 7 7 10 7 19 9 23 8 32 7 32 5 29 3 31 2 22 1h97l55-3 39-4 34-5 36-7 25-6 31-9 28-10 25-11 23-12 11-8v-1l-9 1-25 5-39 6-42 5-45 4-47 3-45 2-51 1h-60l-39-1-62-4-35-5-21-5-6-4-1-1v-6l6-9 10-7 16-8 15-6 32-10 27-7v-1zm440 46m-468 107-19 6-16 7-11 7-6 5-4 8v9l5 8 9 8 14 8 20 8 28 8 38 7 36 4 31 2h36l38-2 36-3 48-6 63-10 70-14 18-4-2-4-19-14-19-13-8-6-9 1-38 8-35 6-44 6-42 4-36 2h-75l-36-2-34-4-26-5-13-5-5-5-2-5 1-6 4-8 7-5zm37 134-22 4-14 5-10 6-7 8-3 7v13l4 10 8 9 10 7 19 9 23 7 22 5 40 6 57 5 16 1h50l44-4 33-5 36-8 25-7 30-10 16-6v-3l-14-8-19-12-23-14-6-4-11 1-59 10-42 6-25 2h-39l-38-2-45-5-29-5-16-4-8-4-2-2v-10l3-6v-2zm-128 93-45 4-36 5-24 5-20 6-16 7-12 9-5 8-1 3v13l5 12 6 7 12 9 16 8 19 7 22 6 36 7 36 5 40 4 44 3 45 2 36 1h133l53-2 61-4 60-6 57-8 43-8 35-8 35-10 26-9 21-9 17-9 9-7 8-9 3-9-1-9-5-10-5-6h-1v13l-4 8-6 5-11 5-24 8-30 8-38 8-46 8-58 8-67 7-55 4-41 2-34 1h-64l-54-2-51-3-45-4-43-5-45-7-34-7-26-8-12-6-3-3h-2l-1-4 5-9 9-7 19-9 28-9 37-9v-1zm771 78m-1 1-19 14-19 11-17 9-28 12-35 12-29 8-26 6-28 5-32 4-49 4-38 2-61 2h-193l-96-2-28-1h-31v1l26 5 50 8 65 8 61 5 41 2 33 1h72l52-2 54-4 56-6 50-7 37-7 26-7 28-10 16-8 13-7 17-12 12-11 9-10 8-13 4-8z"/>
<path transform="translate(241,2047)" d="m0 0 3 1z"/>
</svg>
